#!OML:ASF I:\Actors\actors\Patient Classification 1\Patient 1\Session 1\Subject1.ASF
:FULLY-SPECIFIED
:DEGREES
690
root -0.0345395 17.6042 7.88937 7.76965 -3.29363 -9.2576
lowerback 4.87889 4.33978 4.19536
upperback -8.33555 6.34773 0.139681
thorax -11.2488 2.7211 -3.07936
lowerneck -13.7911 0.673954 5.6402
upperneck 34.7835 -1.09332 1.45634
head 14.2239 0.515319 -0.56261
rclavicle -1.00386e-014 -1.03368e-014
rhumerus 14.49 39.8085 -85.7136
rradius 96.9836
rwrist -0.190323
rhand -22.7093 -54.0801
rfingers 7.12502
rthumb 3.7238 -84.0273
lclavicle -1.00386e-014 -1.03368e-014
lhumerus -25.1197 -13.1463 91.476
lradius 81.4666
lwrist 2.98743
lhand -30.0716 -10.725
lfingers 7.12502
lthumb -3.38664 19.2279
rfemur -0.954539 23.147 26.0434
rtibia 1.21203
rfoot -11.4253 -22.1588
rtoes 0.0532863
lfemur 7.87619 -39.7467 -15.8641
ltibia -3.85511
lfoot -16.1078 47.9246
ltoes 7.5598
691
root -0.0350296 17.601 7.8864 7.70482 -3.36331 -9.25179
lowerback 4.70788 4.31083 4.25493
upperback -8.19348 6.29438 0.107771
thorax -10.9766 2.70131 -3.11436
lowerneck -13.9634 0.747984 5.62674
upperneck 34.8214 -1.03554 1.56654
head 14.2841 0.555327 -0.506019
rclavicle -7.65321e-015 -2.38542e-015
rhumerus 12.9085 41.086 -86.804
rradius 95.6267
rwrist 1.46799
rhand -24.301 -53.3391
rfingers 7.12502
rthumb 2.18667 -83.3077
lclavicle -7.65321e-015 -2.38542e-015
lhumerus -24.9012 -13.0075 91.2713
lradius 81.4594
lwrist 3.17536
lhand -30.1427 -10.578
lfingers 7.12502
lthumb -3.45525 19.3737
rfemur -0.894259 23.1723 26.0694
rtibia 1.24891
rfoot -11.4644 -22.1344
rtoes 0.0553686
lfemur 7.98234 -39.6681 -15.9293
ltibia -3.87927
lfoot -15.9949 47.8991
ltoes 7.40007
692
root -0.0353156 17.5974 7.88296 7.62282 -3.49075 -9.21531
lowerback 4.19701 4.24048 4.08509
upperback -7.82726 6.14915 0.248666
thorax -10.2963 2.68296 -2.78586
lowerneck -14.2757 0.863386 5.40497
upperneck 34.7586 -0.847822 1.63315
head 14.3298 0.614694 -0.410243
rclavicle -4.67144e-015 1.27222e-014
rhumerus 11.1544 43.0308 -87.8386
rradius 93.2984
rwrist 2.07403
rhand -25.006 -52.4034
rfingers 7.12502
rthumb 1.50575 -82.3778
lclavicle -4.67144e-015 1.27222e-014
lhumerus -24.2993 -12.6269 91.0984
lradius 81.3798
lwrist 3.14298
lhand -30.1399 -10.4018
lfingers 7.12502
lthumb -3.45256 19.55
rfemur -0.819206 23.2033 26.0655
rtibia 1.284
rfoot -11.4216 -22.0873
rtoes -0.101123
lfemur 8.11403 -39.5401 -16.0586
ltibia -3.88437
lfoot -15.9652 47.8846
ltoes 7.38856
693
root -0.0353809 17.5942 7.8814 7.54859 -3.62227 -9.20741
lowerback 4.69432 4.34983 4.34365
upperback -8.17745 6.34542 0.0216654
thorax -10.927 2.71614 -3.2584
lowerneck -14.1208 0.694805 5.20627
upperneck 35.0594 -1.20174 2.09617
head 14.4338 0.508688 -0.24125
rclavicle -2.55438e-014 -6.36111e-015
rhumerus 7.41331 44.3891 -90.4757
rradius 89.8728
rwrist 1.72412
rhand -24.5798 -50.9401
rfingers 7.12502
rthumb 1.91742 -80.9112
lclavicle -2.55438e-014 -6.36111e-015
lhumerus -24.8361 -13.1566 91.0252
lradius 81.3974
lwrist 3.05598
lhand -30.0519 -10.4206
lfingers 7.12502
lthumb -3.36754 19.5325
rfemur -0.733583 23.2358 26.0992
rtibia 1.29581
rfoot -11.3608 -22.0371
rtoes -0.311493
lfemur 8.27182 -39.533 -16.2086
ltibia -3.84595
lfoot -16.1408 47.9737
ltoes 7.71467
694
root -0.0369327 17.5927 7.88174 7.44931 -3.83757 -9.18554
lowerback 4.8782 4.45054 4.44292
upperback -8.27988 6.49629 -0.0903677
thorax -11.1199 2.76517 -3.47483
lowerneck -14.1741 0.594405 4.94153
upperneck 35.1504 -1.42824 2.50728
head 14.4921 0.43636 -0.061936
rclavicle 3.50855e-014 1.74931e-014
rhumerus 4.20265 45.9182 -92.8474
rradius 85.0827
rwrist 0.156155
rhand -23.0099 -50.4026
rfingers 7.12502
rthumb 3.4335 -80.3547
lclavicle 3.50855e-014 1.74931e-014
lhumerus -24.9209 -13.412 90.974
lradius 81.4092
lwrist 2.87316
lhand -29.8383 -10.4991
lfingers 7.12502
lthumb -3.16127 19.4572
rfemur -0.631754 23.2705 26.1218
rtibia 1.33095
rfoot -11.3141 -21.9086
rtoes -0.612362
lfemur 8.5737 -39.7021 -16.5109
ltibia -3.80132
lfoot -16.6104 48.2823
ltoes 8.25518
695
root -0.0389095 17.5913 7.88095 7.3797 -4.0745 -9.08772
lowerback 4.8295 4.54397 4.32985
upperback -8.23362 6.60411 -0.105094
thorax -11.0383 2.83037 -3.43443
lowerneck -14.353 0.553333 4.73963
upperneck 35.0849 -1.47824 2.61283
head 14.5031 0.402074 0.00813595
rclavicle 5.13858e-014 1.11319e-014
rhumerus 1.77253 47.6319 -94.6642
rradius 79.3644
rwrist -1.89996
rhand -17.9528 -49.5399
rfingers 7.12502
rthumb 8.31589 -79.3563
lclavicle 5.13858e-014 1.11319e-014
lhumerus -24.7133 -13.5258 90.9924
lradius 81.4121
lwrist 2.76541
lhand -29.6522 -10.4626
lfingers 7.12502
lthumb -2.98156 19.4963
rfemur -0.600886 23.355 26.0257
rtibia 1.39444
rfoot -11.3218 -21.7972
rtoes -0.830969
lfemur 8.74207 -39.6535 -16.7774
ltibia -3.76224
lfoot -16.7071 48.4494
ltoes 8.28269
696
root -0.0379516 17.5877 7.87837 7.385 -4.16682 -8.93762
lowerback 4.70741 4.59656 4.14818
upperback -8.21305 6.65046 -0.0857927
thorax -10.9584 2.87325 -3.307
lowerneck -14.4856 0.54144 4.69942
upperneck 35.0021 -1.43275 2.454
head 14.4915 0.393003 -0.0433956
rclavicle -3.43897e-014 -3.57812e-014
rhumerus 0.0591627 49.8755 -95.9505
rradius 73.2723
rwrist -6.23641
rhand -11.9253 -52.4882
rfingers 7.12502
rthumb 14.1289 -81.9878
lclavicle -3.43897e-014 -3.57812e-014
lhumerus -24.5606 -13.791 91.0298
lradius 81.3409
lwrist 2.86605
lhand -29.6621 -10.4354
lfingers 7.12502
lthumb -2.99112 19.5233
rfemur -0.652054 23.4257 25.823
rtibia 1.41394
rfoot -11.3371 -21.799
rtoes -0.998077
lfemur 8.60757 -39.3862 -16.8609
ltibia -3.68402
lfoot -16.44 48.2934
ltoes 8.06474
697
root -0.0360459 17.5844 7.87641 7.36824 -4.24365 -8.83412
lowerback 4.61316 4.6582 4.00354
upperback -8.20834 6.71757 -0.0462284
thorax -10.9111 2.92238 -3.18455
lowerneck -14.5108 0.536814 4.7653
upperneck 34.8642 -1.36544 2.20413
head 14.4289 0.39259 -0.14767
rclavicle -5.58585e-014 -8.74653e-015
rhumerus -1.36483 52.3997 -97.0363
rradius 67.5638
rwrist -13.0318
rhand -8.21378 -56.4795
rfingers 7.12502
rthumb 17.7031 -85.6936
lclavicle -5.58585e-014 -8.74653e-015
lhumerus -24.4952 -13.9741 91.1441
lradius 81.2692
lwrist 2.83704
lhand -29.7609 -10.3126
lfingers 7.12502
lthumb -3.08659 19.6448
rfemur -0.664227 23.3689 25.68
rtibia 1.41748
rfoot -11.3117 -21.685
rtoes -1.13487
lfemur 8.57878 -39.244 -16.9774
ltibia -3.63323
lfoot -16.3669 48.2237
ltoes 7.92289
698
root -0.0341349 17.5811 7.87611 7.35362 -4.36173 -8.81583
lowerback 4.52372 4.75711 3.89336
upperback -8.19813 6.84001 0.00534086
thorax -10.8551 2.99645 -3.07487
lowerneck -14.5211 0.469062 4.71133
upperneck 34.6247 -1.438 2.19165
head 14.3194 0.346105 -0.157057
rclavicle 5.1684e-015 1.66979e-014
rhumerus -2.9083 54.2968 -98.2291
rradius 63.7248
rwrist -21.5958
rhand -8.46107 -62.2845
rfingers 7.12502
rthumb 17.4652 91.5199
lclavicle 5.1684e-015 1.66979e-014
lhumerus -24.3859 -13.9738 91.3536
lradius 81.2008
lwrist 2.65969
lhand -29.7516 -10.2074
lfingers 7.12502
lthumb -3.07753 19.7502
rfemur -0.66211 23.2836 25.6374
rtibia 1.41574
rfoot -11.2869 -21.5103
rtoes -1.29782
lfemur 8.74534 -39.4347 -17.1706
ltibia -3.64865
lfoot -16.5661 48.5083
ltoes 8.00811
699
root -0.0315982 17.5765 7.87415 7.42171 -4.42191 -8.82508
lowerback 4.45127 4.89009 3.79654
upperback -8.2008 7.00637 0.000387115
thorax -10.8128 3.08728 -3.04016
lowerneck -14.6898 0.284201 4.35352
upperneck 34.3563 -1.78282 2.68056
head 14.2413 0.212471 0.0464457
rclavicle 2.28602e-014 1.19271e-014
rhumerus -4.94497 54.7695 -99.767
rradius 62.3688
rwrist -27.4656
rhand -11.1353 -66.7733
rfingers 7.12502
rthumb 14.8902 96.2182
lclavicle 2.28602e-014 1.19271e-014
lhumerus -24.1609 -14.0997 91.5564
lradius 81.1022
lwrist 2.5422
lhand -29.5681 -10.3411
lfingers 7.12502
lthumb -2.90034 19.6189
rfemur -0.74877 23.3354 25.5947
rtibia 1.4034
rfoot -11.2585 -21.5185
rtoes -1.41606
lfemur 8.80008 -39.7899 -17.2706
ltibia -3.65999
lfoot -16.9646 48.8914
ltoes 8.57904
700
root -0.0306395 17.5744 7.87116 7.53579 -4.39249 -8.87855
lowerback 4.45643 5.03277 3.69014
upperback -8.21851 7.18773 -0.0294843
thorax -10.8319 3.18222 -3.0377
lowerneck -14.9482 0.0769808 4.03926
upperneck 34.0624 -2.15198 3.1037
head 14.1746 0.065494 0.210226
rclavicle -2.68359e-014 2.38542e-015
rhumerus -6.81843 52.6038 -101.116
rradius 62.1653
rwrist -23.2735
rhand -6.00067 -65.2924
rfingers 7.12502
rthumb 19.8317 94.3006
lclavicle -2.68359e-014 2.38542e-015
lhumerus -23.9046 -14.3729 91.7333
lradius 81.0043
lwrist 2.39892
lhand -29.5321 -10.6246
lfingers 7.12502
lthumb -2.86555 19.3359
rfemur -0.898901 23.383 25.5942
rtibia 1.41993
rfoot -11.2343 -21.5624
rtoes -1.22515
lfemur 8.71139 -39.9908 -17.1539
ltibia -3.73126
lfoot -17.1584 49.0809
ltoes 9.02536
701
root -0.0305087 17.5767 7.87019 7.62016 -4.23925 -8.93578
lowerback 4.51152 5.07678 3.56637
upperback -8.21567 7.24042 -0.00911396
thorax -10.8759 3.21754 -2.96149
lowerneck -14.8337 -0.0258896 4.23423
upperneck 33.392 -2.24995 2.88386
head 13.842 -0.00361949 0.0648644
rclavicle -1.09332e-015 -2.3059e-014
rhumerus -8.50294 51.9555 -102.118
rradius 64.6698
rwrist -22.3306
rhand -9.911 -65.111
rfingers 7.12502
rthumb 16.0694 94.4647
lclavicle -1.09332e-015 -2.3059e-014
lhumerus -23.7645 -14.4434 91.8473
lradius 80.9779
lwrist 2.16115
lhand -29.7898 -10.8002
lfingers 7.12502
lthumb -3.11449 19.1568
rfemur -1.0035 23.2753 25.6268
rtibia 1.44181
rfoot -11.2679 -21.5383
rtoes -0.822222
lfemur 8.63573 -40.0984 -16.9843
ltibia -3.88429
lfoot -16.9148 49.1007
ltoes 8.81857
702
root -0.0303787 17.5825 7.87007 7.61881 -4.00936 -8.94801
lowerback 4.65543 4.98759 3.44014
upperback -8.19522 7.12159 0.0694194
thorax -10.9729 3.17027 -2.80983
lowerneck -14.7366 -0.0144864 4.3529
upperneck 32.9583 -2.15964 2.63992
head 13.6232 0.00248 -0.042391
rclavicle 5.78463e-014 3.02153e-014
rhumerus -8.78302 50.596 -102.159
rradius 67.3389
rwrist -19.4276
rhand -8.58996 -64.047
rfingers 7.12502
rthumb 17.3411 93.2934
lclavicle 5.78463e-014 3.02153e-014
lhumerus -23.8509 -14.1852 91.856
lradius 81.0772
lwrist 1.96142
lhand -30.0198 -10.6851
lfingers 7.12502
lthumb -3.33655 19.2685
rfemur -0.985609 23.1696 25.672
rtibia 1.44915
rfoot -11.3948 -21.6006
rtoes -0.422901
lfemur 8.68357 -40.312 -16.9618
ltibia -4.01463
lfoot -16.8147 49.1062
ltoes 8.77461
703
root -0.0278085 17.5875 7.86693 7.6478 -3.61436 -8.97764
lowerback 4.78361 4.74426 3.4372
upperback -8.20749 6.80908 0.168743
thorax -11.0972 3.01873 -2.67781
lowerneck -14.6777 0.112008 4.53091
upperneck 32.8343 -1.91396 2.33602
head 13.5508 0.0852322 -0.156296
rclavicle -1.82882e-014 -3.02153e-014
rhumerus -8.18637 49.9183 -101.774
rradius 70.003
rwrist -17.881
rhand -9.19249 -62.6142
rfingers 7.12502
rthumb 16.7611 91.9107
lclavicle -1.82882e-014 -3.02153e-014
lhumerus -24.127 -13.7319 91.7042
lradius 81.1873
lwrist 2.02534
lhand -30.045 -10.5548
lfingers 7.12502
lthumb -3.36095 19.3984
rfemur -1.01245 23.1311 25.694
rtibia 1.44106
rfoot -11.5587 -21.9001
rtoes -0.159358
lfemur 8.51828 -40.6347 -16.8185
ltibia -3.99414
lfoot -16.728 49.0555
ltoes 8.79957
